<?xml version="1.0" encoding="UTF-8" standalone="no" ?>
<!DOCTYPE svg PUBLIC "-//W3C//DTD SVG 1.1//EN" "http://www.w3.org/Graphics/SVG/1.1/DTD/svg11.dtd">
<svg xmlns="http://www.w3.org/2000/svg" xmlns:xlink="http://www.w3.org/1999/xlink" version="1.1" width="276.3" height="501.0999999999999" viewBox="0.5 0.3000000000000398 276.3 501.0999999999999" xml:space="preserve">
<desc>Created with Fabric.js 4.6.0</desc>
<defs>
</defs>
<g transform="matrix(1 0 0 1 138.65 250.85)" id="rhSktnCQ4KecylH-TNY9M"  >
<path style="stroke: none; stroke-width: 1; stroke-dasharray: none; stroke-linecap: butt; stroke-dashoffset: 0; stroke-linejoin: miter; stroke-miterlimit: 4; fill: rgb(0,0,0); fill-rule: evenodd; opacity: 1;" vector-effect="non-scaling-stroke"  transform=" translate(-138.65, -250.85)" d="M 241 443.8 C 232.9 443.40000000000003 225.2 450.1 218.6 450 C 209.7 449.8 203.7 445.2 197.29999999999998 448.9 C 205.1 444 216.99999999999997 438.09999999999997 224.79999999999998 429.7 C 210.79999999999998 426.3 201.2 440.3 190.39999999999998 446.8 C 197.59999999999997 437.90000000000003 205.7 425.40000000000003 208.29999999999998 411 C 199.99999999999997 421.7 190.29999999999998 429.9 185.49999999999997 447.6 C 170.79999999999998 449.1 149.49999999999997 441.40000000000003 139.49999999999997 431.40000000000003 C 160.79999999999998 441.6 176.39999999999998 436.00000000000006 191.89999999999998 420.6 C 196.79999999999998 415.70000000000005 197.2 417.3 199.7 416.5 C 191.79999999999998 407.7 168.2 408.8 156.89999999999998 414.6 C 156.39999999999998 414.90000000000003 155.89999999999998 415.20000000000005 155.39999999999998 415.5 C 152.49999999999997 413 151.2 415.5 149.7 414.7 C 144.79999999999998 412.09999999999997 139 405.8 137.29999999999998 401.59999999999997 C 141.79999999999998 403.79999999999995 146.7 405.2 151.7 405.7 C 154.6 406.09999999999997 155.79999999999998 409.09999999999997 157.79999999999998 407.4 C 159.49999999999997 405.9 158.89999999999998 403.09999999999997 157.1 402.9 C 155.29999999999998 402.7 153 404.59999999999997 151.5 404.5 C 147.9 404.4 142.9 403.6 139.7 400.9 C 138.7 400.09999999999997 137.89999999999998 399.2 137.29999999999998 398.09999999999997 C 140.6 394.59999999999997 144.6 391.79999999999995 149.1 390.2 C 150.7 391.4 152.1 393.59999999999997 154.2 391.4 C 155.29999999999998 390.2 154.79999999999998 386.9 152.79999999999998 386.7 C 150.7 386.5 149.89999999999998 388.59999999999997 148.89999999999998 388.9 C 143.89999999999998 390.09999999999997 140.7 394.4 136.39999999999998 396.4 C 134.99999999999997 395.79999999999995 133.59999999999997 394.5 131.29999999999998 395 C 126.59999999999998 392.9 121.99999999999999 390.5 117.49999999999999 387.8 C 130.89999999999998 386.7 144.1 383.6 156.7 378.7 C 158.29999999999998 380.8 160.5 379.2 162.6 379.59999999999997 C 165.29999999999998 387.99999999999994 179.7 396.99999999999994 187.5 393.2 C 189.7 393.2 190.8 394.7 192.6 392.09999999999997 C 193.7 390.4 191.5 386.29999999999995 189 388.9 C 187.9 390.09999999999997 187.2 392.29999999999995 185.5 392.5 C 177.3 393.6 165.4 387.5 164.6 378.7 C 167.1 381 171.4 382.9 174.79999999999998 384.2 C 176.2 384.7 176.79999999999998 386.59999999999997 178.89999999999998 386.09999999999997 C 180.29999999999998 385.79999999999995 180.79999999999998 383.79999999999995 179.29999999999998 382.4 C 177.1 380.2 177.29999999999998 383.5 174.99999999999997 383 C 171.59999999999997 382.2 167.99999999999997 380.5 165.79999999999998 377.2 C 171.99999999999997 375.8 180.7 378 187.2 377 C 189.79999999999998 376.6 190.79999999999998 378.6 192.2 376.6 C 193.7 374.5 191.89999999999998 372 190.6 372.1 C 188.9 372.3 187.7 374.40000000000003 187.6 375.70000000000005 C 180.4 377.20000000000005 173.6 374.70000000000005 165.6 375.50000000000006 C 166.79999999999998 373.20000000000005 169.9 371.20000000000005 173.1 370.70000000000005 C 174.79999999999998 370.40000000000003 175 372.20000000000005 176.7 371.1 C 177.1 370.8 177.39999999999998 370.5 177.6 370 C 178 368.9 177.4 367.7 176.29999999999998 367.4 C 174.39999999999998 366.59999999999997 173.79999999999998 369.09999999999997 172.49999999999997 369.59999999999997 C 170.09999999999997 370.59999999999997 167.39999999999998 372.09999999999997 165.29999999999998 371.99999999999994 C 169.39999999999998 366.19999999999993 173.79999999999998 361.69999999999993 179.2 359.49999999999994 C 181 358.79999999999995 182 361.09999999999997 184.29999999999998 359.29999999999995 C 185.1 358.69999999999993 185.1 356.29999999999995 183.39999999999998 355.29999999999995 C 181.09999999999997 353.99999999999994 180.59999999999997 357.4 178.29999999999998 358.59999999999997 C 171.79999999999998 361.79999999999995 166.39999999999998 366.99999999999994 162.89999999999998 373.4 C 160.7 374.59999999999997 158.2 373.2 155.89999999999998 376.79999999999995 C 144.59999999999997 381.49999999999994 131.39999999999998 384.19999999999993 119.49999999999997 385.49999999999994 C 124.29999999999997 383.09999999999997 127.49999999999997 379.69999999999993 130.79999999999998 376.19999999999993 C 131.49999999999997 376.3999999999999 132.79999999999998 375.69999999999993 134.7 372.79999999999995 C 141.89999999999998 372.4 149.79999999999998 371.69999999999993 154 363.49999999999994 C 155 361.49999999999994 159 359.09999999999997 157.6 356.59999999999997 C 156.5 354.7 154.4 354.9 153.79999999999998 356.4 C 152.39999999999998 359.79999999999995 153.79999999999998 361.7 153.1 363 C 149.29999999999998 370.4 142.2 371.6 135.29999999999998 371.3 C 136.39999999999998 369.3 139.7 366.7 142.2 364 C 143.7 362.3 147.1 363 147 358.8 C 147 356.2 143.4 356 142.4 357.40000000000003 C 141 359.3 142 361.70000000000005 141 362.8 C 139.3 365 137.5 367.5 135.1 368.5 C 134.29999999999998 362.1 136.29999999999998 356.5 139.2 351.3 C 140.5 348.8 146 349.6 144.79999999999998 345 C 144.1 342.2 140.2 340.8 138.79999999999998 343.5 C 137.7 345.5 138.49999999999997 349.1 137.7 351 C 135.39999999999998 356.2 133.39999999999998 364.4 132.29999999999998 369 C 129.99999999999997 366 128.6 362.3 128.29999999999998 358.5 C 128.1 356.2 131.29999999999998 354.1 129.7 350.6 C 128.6 348.1 123.69999999999999 348.5 123.6 354.20000000000005 C 123.6 357.40000000000003 126.1 357.50000000000006 126.6 359.40000000000003 C 127.5 363.50000000000006 130.79999999999998 367.6 131.7 370.6 C 131.1 371.70000000000005 129.79999999999998 372.8 129.89999999999998 375.5 C 122.79999999999998 385.5 111.39999999999998 386.5 97.99999999999997 383.1 C 94.39999999999998 382.20000000000005 89.19999999999997 379.3 84.39999999999998 375.5 C 81.69999999999997 370.4 78.89999999999998 366.2 73.89999999999998 364 C 86.09999999999998 368.7 103.09999999999998 377.5 118.59999999999998 378.8 C 108.29999999999998 358.5 85.59999999999998 360.40000000000003 69.09999999999998 353.6 C 84.49999999999999 353.70000000000005 104.19999999999999 351.5 120.39999999999998 340.6 C 102.09999999999998 340.90000000000003 84.99999999999997 337 63.59999999999998 348.40000000000003 C 47.89999999999998 331.90000000000003 34.69999999999998 298.6 34.39999999999998 276.70000000000005 C 45.7 312.6 66.1 326 95.9 330 C 105.30000000000001 331.2 104.10000000000001 333.3 107.4 335.6 C 108.10000000000001 317.40000000000003 84.2 289.90000000000003 67.80000000000001 281.70000000000005 C 64.20000000000002 279.90000000000003 60.10000000000001 279.20000000000005 56.10000000000001 278.30000000000007 C 51.80000000000001 277.4000000000001 47.30000000000001 276.30000000000007 43.400000000000006 274.20000000000005 C 39.00000000000001 271.90000000000003 35.7 268.20000000000005 34.400000000000006 263.30000000000007 C 32.900000000000006 257.6000000000001 31.800000000000004 251.60000000000008 32.50000000000001 245.70000000000007 C 32.800000000000004 242.80000000000007 33.60000000000001 239.90000000000006 34.70000000000001 237.20000000000007 C 40.40000000000001 223.10000000000008 58.20000000000001 225.10000000000008 67.70000000000002 220.40000000000006 C 84.10000000000002 212.20000000000007 108.00000000000001 184.70000000000005 107.30000000000001 166.50000000000006 C 104.10000000000001 168.80000000000007 105.20000000000002 170.80000000000007 95.80000000000001 172.10000000000005 C 66.10000000000001 176.00000000000006 45.70000000000001 189.50000000000006 34.70000000000001 225.30000000000007 C 35.00000000000001 203.40000000000006 48.20000000000001 170.10000000000008 63.900000000000006 153.60000000000008 C 85.4 165.00000000000009 102.4 161.10000000000008 120.7 161.4000000000001 C 104.5 150.60000000000008 84.80000000000001 148.3000000000001 69.4 148.4000000000001 C 85.9 141.60000000000008 108.60000000000001 143.4000000000001 118.9 123.20000000000009 C 103.4 124.50000000000009 86.4 133.2000000000001 74.2 137.9000000000001 C 79.2 135.7000000000001 82 131.50000000000009 84.7 126.40000000000009 C 89.5 122.6000000000001 94.7 119.70000000000009 98.3 118.8000000000001 C 111.7 115.40000000000009 123.1 116.40000000000009 130.2 126.40000000000009 C 130.1 129.10000000000008 131.39999999999998 130.2000000000001 132 131.3000000000001 C 131.1 134.3000000000001 127.9 138.4000000000001 126.9 142.50000000000009 C 126.4 144.4000000000001 123.9 144.50000000000009 123.9 147.70000000000007 C 124 153.40000000000006 128.9 153.70000000000007 130 151.30000000000007 C 131.6 147.80000000000007 128.4 145.70000000000007 128.6 143.40000000000006 C 128.9 139.60000000000005 130.29999999999998 136.00000000000006 132.6 132.90000000000006 C 133.7 137.50000000000006 135.7 145.70000000000007 138 150.90000000000006 C 138.8 152.80000000000007 138 156.40000000000006 139.1 158.40000000000006 C 140.6 161.10000000000005 144.4 159.70000000000007 145.1 156.90000000000006 C 146.29999999999998 152.40000000000006 140.9 153.10000000000005 139.5 150.60000000000005 C 136.7 145.40000000000006 134.6 139.80000000000004 135.4 133.40000000000006 C 137.8 134.50000000000006 139.6 137.00000000000006 141.3 139.10000000000005 C 142.20000000000002 140.30000000000004 141.3 142.70000000000005 142.70000000000002 144.50000000000006 C 143.70000000000002 145.90000000000006 147.3 145.70000000000005 147.3 143.10000000000005 C 147.4 139.00000000000006 144 139.60000000000005 142.5 137.90000000000006 C 140 135.20000000000007 136.7 132.60000000000005 135.6 130.60000000000005 C 142.4 130.30000000000004 149.6 131.50000000000006 153.4 138.90000000000006 C 154 140.20000000000007 152.70000000000002 142.00000000000006 154.1 145.50000000000006 C 154.7 147.00000000000006 156.79999999999998 147.20000000000005 157.9 145.30000000000007 C 159.4 142.80000000000007 155.3 140.40000000000006 154.3 138.40000000000006 C 150.10000000000002 130.20000000000007 142.20000000000002 129.50000000000006 135 129.10000000000005 C 133.2 126.10000000000005 131.9 125.50000000000006 131.1 125.70000000000005 C 127.8 122.20000000000005 124.6 118.80000000000004 119.8 116.40000000000005 C 131.6 117.70000000000005 144.9 120.30000000000005 156.2 125.10000000000005 C 158.5 128.70000000000005 161 127.30000000000005 163.2 128.50000000000006 C 166.7 134.90000000000006 172 140.10000000000005 178.6 143.30000000000007 C 180.9 144.50000000000006 181.4 147.90000000000006 183.7 146.60000000000008 C 185.39999999999998 145.60000000000008 185.39999999999998 143.20000000000007 184.6 142.60000000000008 C 182.29999999999998 140.80000000000007 181.29999999999998 143.20000000000007 179.5 142.4000000000001 C 174.1 140.2000000000001 169.7 135.7000000000001 165.6 129.9000000000001 C 167.79999999999998 129.7000000000001 170.4 131.3000000000001 172.79999999999998 132.3000000000001 C 174.1 132.8000000000001 174.7 135.4000000000001 176.6 134.50000000000009 C 177.7 134.10000000000008 178.29999999999998 133.00000000000009 177.9 131.9000000000001 C 177.70000000000002 131.4000000000001 177.4 131.10000000000008 177 130.8000000000001 C 175.3 129.7000000000001 175.1 131.50000000000009 173.4 131.2000000000001 C 170.20000000000002 130.7000000000001 167.1 128.7000000000001 165.9 126.4000000000001 C 173.8 127.10000000000011 180.6 124.7000000000001 187.9 126.2000000000001 C 188 127.5000000000001 189.20000000000002 129.6000000000001 190.9 129.8000000000001 C 192.20000000000002 129.9000000000001 194 127.40000000000009 192.5 125.3000000000001 C 191.1 123.3000000000001 190 125.3000000000001 187.5 124.90000000000009 C 181.1 123.8000000000001 172.3 126.1000000000001 166.1 124.70000000000009 C 168.29999999999998 121.50000000000009 171.9 119.80000000000008 175.29999999999998 118.90000000000009 C 177.6 118.3000000000001 177.39999999999998 121.6000000000001 179.6 119.50000000000009 C 181.1 118.00000000000009 180.5 116.10000000000008 179.2 115.80000000000008 C 177.1 115.30000000000008 176.5 117.20000000000009 175.1 117.70000000000009 C 171.6 119.00000000000009 167.4 120.90000000000009 164.9 123.20000000000009 C 165.70000000000002 114.30000000000008 177.5 108.20000000000009 185.8 109.40000000000009 C 187.5 109.6000000000001 188.20000000000002 111.8000000000001 189.3 113.00000000000009 C 191.70000000000002 115.60000000000008 194 111.40000000000009 192.9 109.80000000000008 C 191.1 107.20000000000009 190 108.80000000000008 187.8 108.70000000000009 C 180 104.90000000000009 165.70000000000002 113.90000000000009 162.9 122.30000000000008 C 160.8 122.70000000000009 158.6 121.10000000000008 157 123.20000000000009 C 144.4 118.30000000000008 131.2 115.30000000000008 117.8 114.1000000000001 C 122.2 111.40000000000009 126.8 109.0000000000001 131.6 106.90000000000009 C 133.9 107.40000000000009 135.4 106.1000000000001 136.7 105.50000000000009 C 141 107.50000000000009 144.2 111.80000000000008 149.2 113.00000000000009 C 150.2 113.20000000000009 151 115.40000000000009 153.1 115.20000000000009 C 155.1 115.00000000000009 155.6 111.70000000000009 154.5 110.50000000000009 C 152.4 108.30000000000008 151.1 110.50000000000009 149.4 111.70000000000009 C 144.9 110.00000000000009 140.8 107.30000000000008 137.6 103.80000000000008 C 138.2 102.70000000000009 139 101.80000000000008 140 101.00000000000009 C 143.3 98.40000000000009 148.2 97.60000000000008 151.8 97.40000000000009 C 153.3 97.3000000000001 155.60000000000002 99.20000000000009 157.4 99.00000000000009 C 159.20000000000002 98.80000000000008 159.8 96.00000000000009 158.1 94.50000000000009 C 156.1 92.80000000000008 154.9 95.70000000000009 152 96.20000000000009 C 147 96.70000000000009 142.1 98.1000000000001 137.6 100.30000000000008 C 139.29999999999998 96.10000000000008 145.1 89.80000000000008 150 87.20000000000009 C 151.5 86.40000000000009 152.8 88.90000000000009 155.7 86.40000000000009 C 156.2 86.70000000000009 156.7 87.00000000000009 157.2 87.3000000000001 C 168.5 93.0000000000001 192.1 94.2000000000001 200 85.40000000000009 C 197.5 84.6000000000001 197.1 86.20000000000009 192.2 81.3000000000001 C 176.6 65.8000000000001 161.1 60.200000000000095 139.79999999999998 70.5000000000001 C 149.89999999999998 60.5000000000001 171.1 52.8000000000001 185.79999999999998 54.3000000000001 C 190.6 72.0000000000001 200.29999999999998 80.1000000000001 208.6 90.90000000000009 C 206 76.50000000000009 197.9 64.00000000000009 190.7 55.100000000000094 C 201.39999999999998 61.50000000000009 211.1 75.50000000000009 225.1 72.2000000000001 C 217.29999999999998 63.800000000000104 205.4 57.900000000000105 197.6 53.0000000000001 C 204 56.7000000000001 210 52.0000000000001 218.9 51.9000000000001 C 225.5 51.8000000000001 233.20000000000002 58.5000000000001 241.3 58.1000000000001 C 257.7 57.2000000000001 269 45.8000000000001 276.3 32.3000000000001 C 257.7 35.700000000000095 244.60000000000002 26.200000000000095 229.10000000000002 35.100000000000094 C 221.3 39.600000000000094 217.60000000000002 54.8000000000001 204.40000000000003 50.200000000000095 C 214.50000000000003 45.8000000000001 219.60000000000002 39.0000000000001 225.90000000000003 33.0000000000001 C 229.70000000000005 29.400000000000098 234.30000000000004 26.900000000000098 236.80000000000004 22.1000000000001 C 228.40000000000003 22.3000000000001 221.40000000000003 28.4000000000001 216.40000000000003 32.8000000000001 C 219.50000000000003 26.400000000000098 225.30000000000004 21.800000000000097 224.50000000000003 12.800000000000097 C 216.90000000000003 19.600000000000097 207.80000000000004 30.100000000000097 203.90000000000003 39.600000000000094 C 202.40000000000003 43.200000000000095 202.30000000000004 48.50000000000009 199.00000000000003 50.200000000000095 C 192.30000000000004 53.600000000000094 186.60000000000002 47.9000000000001 176.40000000000003 51.700000000000095 C 183.20000000000005 40.700000000000095 197.30000000000004 39.90000000000009 203.40000000000003 29.000000000000096 C 208.20000000000005 20.500000000000096 209.20000000000005 11.400000000000095 210.90000000000003 0.8000000000000966 C 194.80000000000004 11.000000000000096 171.00000000000003 21.300000000000097 171.10000000000002 43.4000000000001 C 171.10000000000002 46.9000000000001 173.40000000000003 49.5000000000001 171.70000000000002 51.600000000000094 C 167.10000000000002 52.100000000000094 162.60000000000002 53.00000000000009 158.20000000000002 54.200000000000095 C 166.20000000000002 41.40000000000009 170.60000000000002 26.200000000000095 170.10000000000002 7.900000000000098 C 164.8 14.300000000000098 161.10000000000002 22.7000000000001 158.00000000000003 30.600000000000097 C 157.80000000000004 26.100000000000097 158.90000000000003 20.700000000000095 157.20000000000002 17.100000000000097 C 150.50000000000003 26.700000000000095 145.8 38.9000000000001 146.20000000000002 51.7000000000001 C 146.3 54.400000000000105 147.4 56.900000000000105 148.10000000000002 59.5000000000001 C 141.60000000000002 63.6000000000001 135.60000000000002 68.4000000000001 130.20000000000002 73.8000000000001 C 136.50000000000003 56.9000000000001 135.50000000000003 38.600000000000094 131.10000000000002 22.0000000000001 C 116.30000000000003 47.9000000000001 94.60000000000002 54.6000000000001 88.10000000000002 82.10000000000011 C 84.80000000000003 96.00000000000011 95.70000000000002 115.2000000000001 78.50000000000003 126.80000000000011 C 84.10000000000002 110.30000000000011 82.60000000000002 97.50000000000011 83.00000000000003 83.90000000000012 C 83.30000000000003 75.90000000000012 85.30000000000003 67.80000000000013 83.20000000000003 60.10000000000012 C 75.30000000000003 70.50000000000013 74.20000000000003 85.00000000000011 73.70000000000003 95.30000000000013 C 70.60000000000004 85.30000000000013 71.90000000000003 73.80000000000013 62.50000000000003 66.10000000000012 C 61.50000000000003 81.90000000000012 62.800000000000026 103.20000000000013 68.00000000000003 117.20000000000013 C 70.00000000000003 122.50000000000013 74.90000000000003 127.80000000000013 73.40000000000003 133.50000000000014 C 70.20000000000003 144.90000000000015 59.10000000000004 146.30000000000015 53.000000000000036 162.40000000000015 C 49.10000000000004 143.50000000000014 62.000000000000036 125.50000000000014 57.60000000000004 107.60000000000015 C 53.7 93.7 46 83.6 37.6 71.3 C 31.700000000000003 100.8 18.400000000000002 139.7 39.5 161 C 42.9 164.4 47.5 164 47.9 168.2 C 43.9 174.29999999999998 40.4 180.6 37.2 187.2 C 32.900000000000006 164.5 21.500000000000004 143.7 4.800000000000004 127.69999999999999 C 5.700000000000005 140.29999999999998 10.100000000000005 153 14.600000000000005 164.5 C 10.2 160.4 6 153.8 1 152.4 C 3.6 169.9 10.6 187.4 23.2 199.4 C 25.8 201.9 29.4 203 32.4 204.70000000000002 C 28.7 223.00000000000003 27.7 241.8 29.5 260.5 C 29.7 262.4 29.8 264.3 30 266.2 C 30.5 272.09999999999997 30.2 278.09999999999997 30.7 284 C 31.099999999999998 288.4 31.599999999999998 292.9 32.5 297.2 C 29.4 299 25.9 300 23.3 302.5 C 10.700000000000001 314.5 3.6999999999999993 331.9 1.1000000000000014 349.5 C 6.100000000000001 348.1 10.3 341.5 14.700000000000001 337.4 C 10.100000000000001 349 5.800000000000001 361.59999999999997 4.9 374.2 C 21.700000000000003 358.2 33 337.4 37.3 314.7 C 40.4 321.2 44 327.59999999999997 48 333.7 C 47.6 337.9 43 337.5 39.6 340.9 C 18.5 362.09999999999997 31.8 401.09999999999997 37.7 430.59999999999997 C 46.1 418.29999999999995 53.800000000000004 408.2 57.2 394.09999999999997 C 61.6 376.2 48.7 358.2 52.6 339.29999999999995 C 58.800000000000004 355.29999999999995 69.9 356.69999999999993 73 368.19999999999993 C 74.6 373.8999999999999 69.6 379.0999999999999 67.6 384.49999999999994 C 62.39999999999999 398.49999999999994 61.099999999999994 419.79999999999995 62.099999999999994 435.59999999999997 C 71.39999999999999 427.9 70.19999999999999 416.4 73.3 406.4 C 73.89999999999999 416.7 74.89999999999999 431.2 82.8 441.59999999999997 C 84.89999999999999 433.9 82.89999999999999 425.79999999999995 82.6 417.79999999999995 C 82.19999999999999 404.29999999999995 83.69999999999999 391.4 78.1 374.9 C 95.3 386.5 84.39999999999999 405.79999999999995 87.69999999999999 419.59999999999997 C 94.29999999999998 447.09999999999997 115.89999999999999 453.79999999999995 130.7 479.7 C 135.1 463.09999999999997 136.1 444.8 129.79999999999998 427.9 C 135.2 433.29999999999995 141.2 438.09999999999997 147.7 442.2 C 147.1 444.8 145.89999999999998 447.3 145.79999999999998 450 C 145.39999999999998 462.9 150.1 475 156.79999999999998 484.6 C 158.49999999999997 481 157.39999999999998 475.6 157.6 471.1 C 160.7 479.1 164.4 487.5 169.7 493.8 C 170.1 475.5 165.79999999999998 460.3 157.79999999999998 447.5 C 162.2 448.7 166.79999999999998 449.6 171.29999999999998 450.1 C 172.99999999999997 452.3 170.7 454.8 170.7 458.3 C 170.6 480.40000000000003 194.39999999999998 490.7 210.5 500.90000000000003 C 208.8 490.3 207.8 481.20000000000005 203 472.70000000000005 C 196.9 461.90000000000003 182.8 461.1 176 450.00000000000006 C 186.1 453.80000000000007 191.9 448.00000000000006 198.6 451.50000000000006 C 201.9 453.20000000000005 202 458.50000000000006 203.5 462.1000000000001 C 207.4 471.6000000000001 216.5 482.2000000000001 224.1 488.9000000000001 C 224.9 479.9000000000001 219.1 475.30000000000007 216 468.9000000000001 C 220.9 473.30000000000007 228 479.4000000000001 236.4 479.6000000000001 C 233.9 474.80000000000007 229.3 472.2000000000001 225.5 468.7000000000001 C 219.2 462.7000000000001 214 455.9000000000001 204 451.5000000000001 C 217.3 446.9000000000001 220.9 462.10000000000014 228.7 466.60000000000014 C 244.2 475.5000000000001 257.3 466.0000000000001 275.9 469.40000000000015 C 268.7 456.1 257.4 444.7 241 443.8 z M 112.2 375.6 C 100.7 370.20000000000005 83.9 370.1 76.30000000000001 359.3 C 88.9 360.6 104.9 363.5 112.2 375.6 z M 92.8 313.8 C 78.39999999999999 301.40000000000003 57.8 297.6 47 280.40000000000003 C 63.8 283.1 84.7 297.1 92.8 313.8 z M 100 327.5 C 79 322.2 54 319.3 43.2 286.1 C 61.6 300.4 85.5 308.2 100 327.5 z M 47 221.6 C 57.7 204.4 78.3 200.6 92.8 188.2 C 84.7 204.9 63.8 218.9 47 221.6 z M 100 174.5 C 85.5 193.9 61.6 201.6 43.2 215.9 C 54.1 182.7 79 179.8 100 174.5 z M 112.2 126.4 C 104.9 138.5 88.9 141.3 76.30000000000001 142.70000000000002 C 83.9 132 100.7 131.9 112.2 126.4 z M 265.6 37 C 251.60000000000002 44.9 236.00000000000003 41.5 224.8 44 C 230.8 34.5 255.6 32.4 265.6 37 z M 264.8 41.8 L 264.8 41.8 C 257.5 54.9 232.60000000000002 57.599999999999994 224.5 47.9 C 238.8 44.1 249.3 47.9 264.8 41.8 z M 230.6 25.5 L 230.6 25.5 C 222.9 32.9 217.1 41.6 206 46.7 C 212.8 38.8 219.2 30.5 230.6 25.5 z M 222.5 17.2 L 222.5 17.2 C 219.2 28 210.4 35.3 204.8 44.7 C 206 34.9 214 24.3 222.5 17.2 z M 220.2 69.8 C 211.29999999999998 71.2 202.6 63.199999999999996 196.2 56.5 C 204.5 56 212.4 65.7 220.2 69.8 z M 205.6 84.9 C 199.6 78 191.2 69.2 187.2 55.400000000000006 C 195.3 61.2 201 71.9 205.6 84.9 z M 178.4 44.3 C 180.3 30.699999999999996 198.9 22.799999999999997 207 11.199999999999996 C 204 26.6 194.4 37.6 178.4 44.3 z M 204.2 8.3 C 202.2 14.9 193 19.9 186.79999999999998 25.8 C 180.49999999999997 31.700000000000003 177.1 39.6 174.29999999999998 47.1 C 169.8 27.1 189.6 17.7 204.2 8.3 z M 167.8 13.9 L 167.8 13.9 C 169.10000000000002 29.4 162.70000000000002 45 154.20000000000002 56.199999999999996 C 154.1 41.5 161.5 26.4 167.8 13.9 z M 155.8 22.9 L 155.8 22.9 C 157.70000000000002 35 153.3 48.099999999999994 150.20000000000002 58.9 C 143.4 46 153.1 33.6 155.8 22.9 z M 192.8 85 L 192.8 85 C 177.3 85.5 162.70000000000002 75.2 147.70000000000002 71.2 C 167.7 62.1 180.6 75.2 192.8 85 z M 183.2 87.1 C 171.89999999999998 90.1 155.89999999999998 84.39999999999999 146.89999999999998 76 L 146.89999999999998 76 C 159.6 74.3 170.8 84.5 183.2 87.1 z M 95.5 100 C 105.8 78.8 119.5 69.7 128.8 45 C 134.2 66.7 112.6 99.6 95.5 100 z M 125.1 39.3 C 119.1 63.9 100.69999999999999 79.69999999999999 92.19999999999999 95.69999999999999 C 89 79.2 111 47 125.1 39.3 z M 93.8 111 L 93.8 111 C 100.1 102.9 113.9 100.1 121.3 89.8 C 123 87.5 124.5 85.1 125.8 82.6 C 127.8 79.6 130.6 77.3 134 76 C 140.7 73.6 146.4 79.2 151.6 83.5 C 150.79999999999998 84.2 150.4 85.4 148.9 86.3 C 143.20000000000002 89.89999999999999 138 95.2 135.5 100.5 C 134.2 97.1 134 93.9 135 91.7 C 136 89.60000000000001 138.1 89.5 136.9 86.8 C 136.3 85.5 134.20000000000002 85.89999999999999 133.70000000000002 86.8 C 132.8 88.3 133.60000000000002 89.8 133.70000000000002 91.8 C 133.8 95.39999999999999 133.20000000000002 97.6 134.4 102.1 C 132.9 102.89999999999999 131.4 103.5 130.5 105.19999999999999 C 123.5 109.39999999999999 120.9 111.29999999999998 115.4 113.29999999999998 C 110.80000000000001 114.99999999999999 102.5 115.19999999999999 95.60000000000001 117.79999999999998 C 92.30000000000001 119.19999999999999 89.10000000000001 120.99999999999999 86.2 123.19999999999999 C 88.4 119 90.9 114.9 93.8 111 z M 80.2 70.8 C 79.7 87.4 82.4 102.8 76.4 121.3 C 75.6 105.2 73.9 89.5 80.2 70.8 z M 64.6 72.5 C 71.69999999999999 87.1 70.1 104.8 73.5 120.8 C 65.3 109.7 63 89.7 64.6 72.5 z M 112.4 158.9 L 112.4 158.9 C 100.10000000000001 159.4 83.60000000000001 161.1 66.5 152.70000000000002 C 80 148.3 95.6 151.8 112.4 158.9 z M 38.3 86.1 L 38.3 86.1 C 42.599999999999994 95 38.5 110.89999999999999 38 124.19999999999999 C 37.5 137.6 41.7 149.39999999999998 46.2 160.1 C 22.8 146.1 33.2 113 38.3 86.1 z M 47.5 152.4 L 47.5 152.4 C 36.4 136.9 47 106.60000000000001 43.8 85.60000000000001 C 55.6 104.1 56.7 126.4 47.5 152.4 z M 8.5 135.8 C 24.5 149.3 33.1 172.3 35.5 193.3 C 21.3 179.2 14.2 155.7 8.5 135.8 z M 5.4 159.1 C 18.700000000000003 168.5 26.9 186.6 34.2 200.89999999999998 C 15.3 196.7 12.9 172.8 5.4 159.1 z M 5.4 342.9 C 13 329.29999999999995 15.3 305.29999999999995 34.2 301.09999999999997 C 26.9 315.3 18.6 333.4 5.4 342.9 z M 8.5 366.2 C 14.2 346.3 21.3 322.8 35.5 308.7 C 33.1 329.7 24.5 352.8 8.5 366.2 z M 38.3 415.9 C 33.099999999999994 388.9 22.799999999999997 355.79999999999995 46.199999999999996 341.9 C 41.699999999999996 352.5 37.5 364.4 38 377.79999999999995 C 38.6 391.1 42.6 407.1 38.3 415.9 z M 43.8 416.4 C 47 395.4 36.4 365.09999999999997 47.5 349.59999999999997 L 47.5 349.59999999999997 C 56.7 375.6 55.6 397.9 43.8 416.4 z M 66.5 349.3 C 83.6 340.90000000000003 100 342.5 112.4 343.1 L 112.4 343.1 C 95.6 350.2 80 353.7 66.5 349.3 z M 64.6 429.5 C 62.99999999999999 412.3 65.39999999999999 392.3 73.5 381.2 C 70 397.1 71.6 414.9 64.6 429.5 z M 80.2 431.2 C 73.9 412.5 75.60000000000001 396.8 76.4 380.7 C 82.4 399.3 79.7 414.7 80.2 431.2 z M 192.8 417 L 192.8 417 C 180.70000000000002 426.8 167.8 439.9 147.70000000000002 430.8 C 162.7 426.8 177.2 416.5 192.8 417 z M 183.2 414.9 C 170.89999999999998 417.5 159.6 427.79999999999995 146.89999999999998 426 L 146.89999999999998 426 C 155.8 417.5 171.8 411.8 183.2 414.9 z M 92.2 406.3 C 100.7 422.3 119 438.1 125.1 462.7 C 111 455 89 422.8 92.2 406.3 z M 128.8 456.9 C 119.50000000000001 432.2 105.80000000000001 423.2 95.50000000000001 401.9 C 112.6 402.4 134.2 435.3 128.8 456.9 z M 134 425.9 C 130.6 424.59999999999997 127.8 422.29999999999995 125.8 419.29999999999995 C 124.5 416.79999999999995 122.89999999999999 414.4 121.3 412.09999999999997 C 113.89999999999999 401.79999999999995 100 399.09999999999997 93.8 390.9 L 93.8 390.9 C 90.89999999999999 387 88.39999999999999 382.9 86.3 378.5 C 89.2 380.7 92.3 382.5 95.7 383.9 C 102.5 386.5 110.9 386.79999999999995 115.5 388.4 C 121 390.4 123.6 392.4 130.6 396.5 C 131.5 398.2 133 398.8 134.5 399.6 C 133.3 404.20000000000005 133.9 406.40000000000003 133.8 409.90000000000003 C 133.70000000000002 411.90000000000003 133 413.3 133.8 414.90000000000003 C 134.3 415.8 136.4 416.20000000000005 137 414.90000000000003 C 138.2 412.1 136.1 412.1 135.1 410.00000000000006 C 134.1 407.90000000000003 134.29999999999998 404.6000000000001 135.6 401.20000000000005 C 138 406.50000000000006 143.29999999999998 411.80000000000007 149 415.40000000000003 C 150.5 416.3 150.9 417.50000000000006 151.7 418.20000000000005 C 146.5 422.8 140.7 428.3 134 425.9 z M 155.8 479.1 C 153.10000000000002 468.40000000000003 143.4 456 150.20000000000002 443.1 C 153.3 453.9 157.7 467 155.8 479.1 z M 167.8 488.1 C 161.4 475.6 154.10000000000002 460.6 154.20000000000002 445.8 C 162.7 456.9 169.2 472.6 167.8 488.1 z M 207 490.7 C 199 479.09999999999997 180.3 471.3 178.4 457.59999999999997 C 194.4 464.4 204 475.4 207 490.7 z M 186.8 476.3 C 193.10000000000002 482.2 202.20000000000002 487.2 204.20000000000002 493.8 C 189.60000000000002 484.3 169.8 475 174.3 455 C 177.1 462.5 180.5 470.4 186.8 476.3 z M 205.6 417.1 C 201.1 430.1 195.4 440.8 187.2 446.6 C 191.2 432.8 199.6 424 205.6 417.1 z M 196.1 445.5 C 202.6 438.8 211.29999999999998 430.8 220.1 432.2 L 220.1 432.2 C 212.4 436.3 204.5 446 196.1 445.5 z M 230.6 476.5 L 230.6 476.5 C 219.2 471.5 212.9 463.2 206 455.3 C 217.1 460.5 222.8 469.1 230.6 476.5 z M 222.5 484.8 L 222.5 484.8 C 214 477.7 206 467.1 204.8 457.3 C 210.4 466.6 219.2 473.9 222.5 484.8 z M 264.8 460.1 L 264.8 460.1 C 249.3 454.1 238.8 457.90000000000003 224.5 454 C 232.6 444.3 257.4 447 264.8 460.1 z M 224.8 458 C 236 460.5 251.60000000000002 457.1 265.6 465 C 255.6 469.6 230.8 467.5 224.8 458 z" stroke-linecap="round" />
</g>
</svg>